<?xml version="1.0" standalone="no"?><!DOCTYPE svg PUBLIC "-//W3C//DTD SVG 1.1//EN" "http://www.w3.org/Graphics/SVG/1.1/DTD/svg11.dtd"><svg t="1516939669475" class="icon" style="" viewBox="0 0 1024 1024" version="1.1" xmlns="http://www.w3.org/2000/svg" p-id="1057" xmlns:xlink="http://www.w3.org/1999/xlink" width="200" height="200"><defs><style type="text/css"></style></defs><path d="M504.363882 16.445242c-278.221919 0-503.768317 225.543378-503.768317 503.76429s225.546398 503.768317 503.768317 503.768317 503.768317-225.546398 503.768317-503.768317S782.585801 16.445242 504.363882 16.445242zM655.371539 640.160219c8.579557 8.576537 8.579557 22.483454 0 31.05697-8.576537 8.573516-22.480433 8.573516-31.05697 0L504.37093 551.267508 384.414202 671.217188c-8.576537 8.573516-22.480433 8.573516-31.05697 0-8.576537-8.573516-8.576537-22.480433 0-31.05697l119.943639-119.950687L353.356225 400.259852c-8.576537-8.576537-8.576537-22.477413 0-31.053949 8.576537-8.579557 22.480433-8.579557 31.05697 0l119.956728 119.950687L624.314569 369.205902c8.576537-8.579557 22.480433-8.579557 31.05697 0 8.579557 8.576537 8.579557 22.477413 0 31.053949L535.418838 520.209532 655.371539 640.160219z" p-id="1058" fill="#dbdbdb"></path></svg>