<?xml version="1.0" standalone="no"?><!DOCTYPE svg PUBLIC "-//W3C//DTD SVG 1.1//EN" "http://www.w3.org/Graphics/SVG/1.1/DTD/svg11.dtd"><svg t="1516677407535" class="icon" style="" viewBox="0 0 1024 1024" version="1.1" xmlns="http://www.w3.org/2000/svg" p-id="3797" xmlns:xlink="http://www.w3.org/1999/xlink" width="200" height="200"><defs><style type="text/css"></style></defs><path d="M674.133333 174.933333V110.933333c0-38.4-29.866667-68.266667-64-68.266666H413.866667c-38.4 0-64 29.866667-64 68.266666v68.266667H85.333333v68.266667h98.133334v669.866666c0 34.133333 29.866667 64 64 64h524.8c34.133333 0 64-29.866667 64-68.266666V243.2H938.666667V174.933333h-264.533334zM413.866667 110.933333h196.266666v68.266667H413.866667V110.933333z m362.666666 802.133334H247.466667V243.2h524.8v669.866667zM413.866667 345.6H349.866667v469.333333h64v-469.333333z m132.266666 0h-64v469.333333h64v-469.333333z m128 0h-64v469.333333h64v-469.333333z" p-id="3798" fill="#8a8a8a"></path></svg>