<?xml version="1.0" standalone="no"?><!DOCTYPE svg PUBLIC "-//W3C//DTD SVG 1.1//EN" "http://www.w3.org/Graphics/SVG/1.1/DTD/svg11.dtd"><svg t="1517367017205" class="icon" style="" viewBox="0 0 1024 1024" version="1.1" xmlns="http://www.w3.org/2000/svg" p-id="4145" xmlns:xlink="http://www.w3.org/1999/xlink" width="200" height="200"><defs><style type="text/css"></style></defs><path d="M702.840466 400.405389c-1.231037 13.095249-4.77884 23.549346-10.655687 31.338752-5.870708 7.795547-11.880585 13.884218-18.070564 18.249643-7.40976 4.991688-15.440667 8.42795-24.086581 10.29139-4.936429 10.610662-10.184967 20.582781-15.753799 29.946033-4.941546 8.108678-10.039657 16.060791-15.289218 23.851221-5.254677 7.795547-10.336416 13.884218-15.289218 18.249643-5.557576 4.980431-10.812253 9.194406-15.758915 12.625552-4.935406 3.418866-9.255805 7.017834-12.961196 10.755971-3.710508 3.749394-6.79987 8.265244-9.267061 13.571087-2.473331 5.299703-4.320399 11.69025-5.551436 19.178805-1.231037 8.735965-2.629897 17.46579-4.168949 26.201755-1.550309 8.729825 11.796674 64.541969 11.796674 64.541969l111.925139 279.80773L64.345494 959.01494c0 0-0.224104-94.862531 7.566326-145.973606 2.473331-15.585977 7.566326-28.378327 15.289218-38.35147 7.717775-9.989515 17.141402-18.551518 28.255531-25.732058 11.120268-7.1744 23.470551-12.94994 37.069267-17.309224 13.582343-4.370541 27.489074-8.579399 41.692564-12.630668 14.208607-4.057409 27.936259-8.422833 41.216727-13.095249 13.285584-4.678556 25.480324-10.44284 36.599569-17.309224 12.972453-8.103562 23.01211-16.050558 30.107715-23.851221 7.101745-7.795547 12.048407-15.440667 14.824637-22.922059 2.77623-7.487531 4.168949-15.289218 4.168949-23.39278 0-8.103562-0.308015-16.833387-0.923022-26.196639-1.231037-14.976086-6.183839-26.50977-14.824637-34.618449-8.645914-8.103562-17.925255-16.531512-27.79709-25.261337-4.936429-4.370541-9.888208-10.44284-14.824637-18.243503-4.935406-7.795547-9.261944-15.753799-12.972453-23.851221-4.320399-9.362228-8.645914-19.340487-12.966313-29.957289-6.79373-1.237177-13.274328-3.425006-19.458167-6.541997-5.557576-3.116991-11.120268-7.482415-16.671705-13.090133-5.557576-5.612834-9.894348-13.722536-12.972453-24.332175-3.710508-10.604522-4.471848-20.269649-2.311649-28.999474 2.165316-8.729825 5.399987-16.223496 9.726525-22.457478 4.941546-6.866385 11.120268-13.414521 18.535145-19.659759 0.61603-23.699772 3.089361-47.405683 7.414877-71.100338 3.699252-19.961634 9.105379-41.479717 16.200984-64.564481 7.101745-23.073508 17.141402-43.662429 30.113855-61.749366 11.730159-17.46579 24.864294-31.658024 39.375799-42.576701 14.505365-10.907421 29.336142-19.485797 44.467771-25.732058 15.126512-6.233981 30.259164-10.4367 45.391816-12.625552 15.132652-2.176572 29.80584-3.26844 44.014446-3.26844 17.913998 0 35.205826 2.026146 51.877531 6.072299 16.676821 4.057409 32.122605 9.513678 46.326095 16.374946 14.208607 6.861268 26.861788 14.650675 37.987173 23.381523 11.114129 8.735965 20.068058 17.460674 26.861788 26.201755 16.055674 19.961634 28.568662 42.10598 37.517475 66.427922 8.953929 24.327058 15.904225 47.087435 20.845771 68.302619 5.557576 24.943089 9.255805 49.901527 11.114129 74.844615 6.183839 3.123131 11.741415 7.169283 16.682961 12.172227 4.314259 4.370541 7.868201 9.983375 10.644431 16.839527C703.293791 381.092531 704.072527 389.794727 702.840466 400.405389L702.840466 400.405389 702.840466 400.405389z" p-id="4146" fill="#1296db"></path><path d="M679.711699 679.206186l279.81387 0 0 55.962569L679.711699 735.168756 679.711699 679.206186z" p-id="4147" fill="#1296db"></path><path d="M791.636838 791.137465l167.888731 0 0 55.957453L791.636838 847.094918 791.636838 791.137465z" p-id="4148" fill="#1296db"></path><path d="M735.674269 903.056464l223.851301 0 0 55.957453L735.674269 959.013917 735.674269 903.056464z" p-id="4149" fill="#1296db"></path><path d="M735.674269 567.280024l223.851301 0 0 55.968709L735.674269 623.248733 735.674269 567.280024z" p-id="4150" fill="#1296db"></path></svg>